<?xml version="1.0" encoding="utf-8"?>
<!-- Generator: Adobe Illustrator 23.0.6, SVG Export Plug-In . SVG Version: 6.00 Build 0)  -->
<svg version="1.1" id="Layer_1" xmlns="http://www.w3.org/2000/svg" xmlns:xlink="http://www.w3.org/1999/xlink" x="0px" y="0px"
	 viewBox="0 0 125.8 59" style="enable-background:new 0 0 125.8 59;" xml:space="preserve">
<style type="text/css">
	.st0{fill:#FFFFFF;}
</style>
<g>
	<path class="st0" d="M19.3,27.3h7.8v4.2c-1.5,1-4,1.7-6.5,1.7c-5.8,0-10-4.3-10-10.1V23c0-5.6,4.1-10.1,9.3-10.1
		c3.6,0,6.2,1.2,8.8,3.4l6.1-7C31,6,26.5,4,20.1,4c-11.3,0-19,8.4-19,19v0.1c0,11,7.8,18.9,19.2,18.9c6.7,0,12-2.5,15.9-5.6V19.1
		H22.1L19.3,27.3z"/>
	<path class="st0" d="M91.2,20.3l1.9-7.6H84V4.1l-8.7,4.3v4.3v7.6v12.4c0,5.5,3.4,8.8,8.8,8.8h8v-8h-4.8c-2.4,0-3.3-0.9-3.3-3.4
		v-9.7H91.2z"/>
	<path class="st0" d="M116,31.5c-1.1,1.5-2.8,2.5-4.9,2.5c-4.2,0-6.7-3.1-6.7-6.9c0-3.8,2.5-6.9,6.7-6.9c2.1,0,3.7,0.9,4.9,2.4V31.5
		z M116,12.7v1.7c-1.7-1.4-4-2.2-6.4-2.2c-8.6,0-14,6.9-14,14.8c0,7.9,5.4,14.8,14,14.8c2.4,0,4.7-0.8,6.4-2.2v1.7h8.7V12.7H116z"/>
	<path class="st0" d="M57.8,23.6h-1.1h-7.3c0-0.1,0-0.2,0.1-0.3c0.9-3.2,3.8-4.1,5.8-4.1c2.8,0,5.2,1.2,5.8,4l0.1,0.4H57.8z
		 M55.7,12.2c-8.8,0-14.8,6.4-14.8,14.8c0,8.8,7.1,14.8,14.7,14.8c5.7,0,10.4-2.8,13-6.9l-6.9-4.7c-1.1,2.1-3.1,3.6-6.2,3.6
		c-2.5,0-4.9-1-6.2-4.9c0-0.1-0.1-0.3-0.1-0.5h7.6H58h11.6c0.1-0.9,0.2-1.7,0.2-2.6C69.7,17,63.1,12.2,55.7,12.2"/>
</g>
<g>
	<path class="st0" d="M55.2,55.5c0.2,0.5,0.8,0.7,1.2,0.7c1,0,1.5-0.7,1.5-1.9c0,0,0-0.1,0-0.1c-0.2,0.5-0.9,0.8-1.5,0.8
		c-0.6,0-1.1-0.2-1.5-0.6c-0.4-0.4-0.6-0.9-0.6-1.6c0-0.7,0.2-1.2,0.6-1.6c0.4-0.4,0.9-0.6,1.5-0.6c0.6,0,1.2,0.3,1.5,0.8v-0.7h0.8
		v3.6c0,1.9-0.8,2.8-2.3,2.8c-0.8,0-1.5-0.4-1.9-1.2c0,0,0.2-0.1,0.4-0.2L55.2,55.5z M57.5,51.7c-0.3-0.3-0.6-0.4-1-0.4
		c-0.4,0-0.7,0.1-1,0.4c-0.3,0.3-0.4,0.6-0.4,1c0,0.4,0.1,0.8,0.4,1c0.3,0.3,0.6,0.4,1,0.4c0.4,0,0.7-0.1,1-0.4
		c0.3-0.3,0.4-0.6,0.4-1C57.9,52.3,57.8,51.9,57.5,51.7z"/>
	<path class="st0" d="M64.4,53h-3.5c0.1,0.7,0.7,1.2,1.4,1.2c0.5,0,1-0.2,1.2-0.7c0.1,0,0.2,0.1,0.4,0.1l0.3,0.1
		c-0.4,0.7-1.1,1.1-2,1.1c-0.6,0-1.1-0.2-1.6-0.6c-0.4-0.4-0.6-1-0.6-1.6c0-0.7,0.2-1.2,0.6-1.6c0.4-0.4,0.9-0.6,1.6-0.6
		c0.6,0,1.1,0.2,1.5,0.6c0.4,0.4,0.6,0.9,0.6,1.6C64.4,52.8,64.4,53,64.4,53z M63.6,52.4c-0.1-0.7-0.6-1.1-1.3-1.1
		c-0.7,0-1.3,0.4-1.4,1.1H63.6z"/>
	<path class="st0" d="M66.8,50.6h0.9v0.7h-0.9v3.6H66v-3.6h-0.8v-0.7H66v-1.6h0.8V50.6z"/>
	<path class="st0" d="M72.2,54.8v-0.7c-0.3,0.5-0.9,0.8-1.5,0.8c-0.6,0-1.1-0.2-1.5-0.6c-0.4-0.4-0.6-1-0.6-1.6
		c0-0.7,0.2-1.2,0.6-1.6c0.4-0.4,0.9-0.6,1.5-0.6c0.6,0,1.2,0.3,1.5,0.7v-0.6H73v4.3H72.2z M71.7,51.7c-0.3-0.2-0.6-0.4-1-0.4
		c-0.4,0-0.7,0.1-1,0.4c-0.3,0.3-0.4,0.6-0.4,1c0,0.4,0.1,0.8,0.4,1c0.3,0.3,0.6,0.4,1,0.4s0.7-0.1,1-0.4c0.3-0.3,0.4-0.6,0.4-1
		C72.2,52.3,72,51.9,71.7,51.7z"/>
	<path class="st0" d="M78,54.8v-0.7c-0.3,0.5-0.9,0.8-1.5,0.8c-0.6,0-1.1-0.2-1.5-0.6c-0.4-0.4-0.6-1-0.6-1.6c0-0.7,0.2-1.2,0.6-1.6
		c0.4-0.4,0.9-0.6,1.5-0.6c0.7,0,1.2,0.3,1.5,0.7v-3h0.8v6.6H78z M75.6,51.7c-0.3,0.3-0.4,0.6-0.4,1c0,0.4,0.1,0.8,0.4,1
		c0.3,0.3,0.6,0.4,1,0.4s0.7-0.1,1-0.4c0.3-0.3,0.4-0.6,0.4-1c0-0.4-0.1-0.8-0.4-1c-0.3-0.2-0.6-0.4-1-0.4
		C76.1,51.3,75.8,51.4,75.6,51.7z"/>
	<path class="st0" d="M80.4,48.6c0.2-0.2,0.6-0.2,0.8,0c0.2,0.2,0.2,0.6,0,0.8c-0.2,0.2-0.6,0.2-0.8,0
		C80.2,49.2,80.2,48.8,80.4,48.6z M80.4,54.8v-4.3h0.8v4.3H80.4z"/>
	<path class="st0" d="M83.4,55.5c0.2,0.5,0.8,0.7,1.2,0.7c1,0,1.5-0.7,1.5-1.9c0,0,0-0.1,0-0.1c-0.2,0.5-0.9,0.8-1.5,0.8
		c-0.6,0-1.1-0.2-1.5-0.6c-0.4-0.4-0.6-0.9-0.6-1.6c0-0.7,0.2-1.2,0.6-1.6c0.4-0.4,0.9-0.6,1.5-0.6c0.6,0,1.2,0.3,1.5,0.8v-0.7H87
		v3.6c0,1.9-0.8,2.8-2.3,2.8c-0.8,0-1.5-0.4-1.9-1.2c0,0,0.2-0.1,0.4-0.2L83.4,55.5z M85.8,51.7c-0.3-0.3-0.6-0.4-1-0.4
		c-0.4,0-0.7,0.1-1,0.4c-0.3,0.3-0.4,0.6-0.4,1c0,0.4,0.1,0.8,0.4,1c0.3,0.3,0.6,0.4,1,0.4c0.4,0,0.7-0.1,1-0.4
		c0.3-0.3,0.4-0.6,0.4-1C86.2,52.3,86.1,51.9,85.8,51.7z"/>
	<path class="st0" d="M88.6,48.6c0.2-0.2,0.6-0.2,0.8,0c0.2,0.2,0.2,0.6,0,0.8c-0.2,0.2-0.6,0.2-0.8,0
		C88.4,49.2,88.4,48.8,88.6,48.6z M88.6,54.8v-4.3h0.8v4.3H88.6z"/>
	<path class="st0" d="M92.2,50.6h0.9v0.7h-0.9v3.6h-0.8v-3.6h-0.8v-0.7h0.8v-1.6h0.8V50.6z"/>
	<path class="st0" d="M97.5,54.8v-0.7c-0.3,0.5-0.9,0.8-1.5,0.8c-0.6,0-1.1-0.2-1.5-0.6c-0.4-0.4-0.6-1-0.6-1.6
		c0-0.7,0.2-1.2,0.6-1.6c0.4-0.4,0.9-0.6,1.5-0.6c0.6,0,1.2,0.3,1.5,0.7v-0.6h0.8v4.3H97.5z M97.1,51.7c-0.3-0.2-0.6-0.4-1-0.4
		c-0.4,0-0.7,0.1-1,0.4c-0.3,0.3-0.4,0.6-0.4,1c0,0.4,0.1,0.8,0.4,1c0.3,0.3,0.6,0.4,1,0.4c0.4,0,0.7-0.1,1-0.4
		c0.3-0.3,0.4-0.6,0.4-1C97.5,52.3,97.4,51.9,97.1,51.7z"/>
	<path class="st0" d="M99.9,48.2h0.8v6.6h-0.8V48.2z"/>
	<path class="st0" d="M102.5,54c0.2-0.2,0.6-0.2,0.8,0c0.2,0.2,0.2,0.6,0,0.8c-0.2,0.2-0.6,0.2-0.8,0
		C102.2,54.6,102.2,54.2,102.5,54z"/>
	<path class="st0" d="M108.6,51.2l-0.6,0.5c-0.3-0.3-0.6-0.4-1-0.4c-0.4,0-0.7,0.1-1,0.4c-0.3,0.3-0.4,0.6-0.4,1
		c0,0.4,0.1,0.8,0.4,1c0.3,0.3,0.6,0.4,1,0.4c0.4,0,0.8-0.1,1-0.4l0.6,0.5c-0.4,0.5-1,0.7-1.7,0.7c-0.6,0-1.2-0.2-1.6-0.6
		c-0.4-0.4-0.7-1-0.7-1.6s0.2-1.2,0.7-1.6c0.4-0.4,1-0.6,1.6-0.6C107.7,50.5,108.2,50.7,108.6,51.2z"/>
	<path class="st0" d="M110.1,51.1c0.4-0.4,1-0.6,1.6-0.6s1.2,0.2,1.6,0.6c0.4,0.4,0.7,0.9,0.7,1.6s-0.2,1.2-0.7,1.6
		c-0.4,0.4-1,0.6-1.6,0.6s-1.2-0.2-1.6-0.6c-0.4-0.4-0.7-1-0.7-1.6C109.5,52,109.7,51.5,110.1,51.1z M112.7,51.7
		c-0.3-0.3-0.6-0.4-1-0.4s-0.7,0.1-1,0.4c-0.3,0.3-0.4,0.6-0.4,1c0,0.4,0.1,0.8,0.4,1c0.3,0.3,0.6,0.4,1,0.4s0.7-0.1,1-0.4
		c0.3-0.3,0.4-0.6,0.4-1C113.1,52.3,113,51.9,112.7,51.7z"/>
	<path class="st0" d="M119.1,52.5v2.3h-0.8v-2.4c0-0.7-0.4-1.1-0.9-1.1c-0.7,0-1.2,0.4-1.2,1.2v2.3h-0.8v-4.3h0.8v0.6
		c0.2-0.4,0.8-0.7,1.2-0.7c0.2,0,0.3,0,0.5,0c0.5,0.1,0.9,0.4,1.1,0.8c0.3-0.6,0.8-0.9,1.5-0.9c1.1,0,1.7,0.7,1.7,1.9v2.5h-0.8v-2.4
		c0-0.7-0.4-1.1-1-1.1C119.5,51.3,119.1,51.8,119.1,52.5z"/>
</g>
</svg>
